# xmcd
#
# Track frame offsets: 
#        150
#        22094
#        40171
#        57748
#        78948
#        99802
#        111852
#        137207
#        154295
#        176660
#        192540
#        212252
#        232605
#
# Disc length: 3364 seconds
#
# Revision: 0
# Processed by: cddbd v1.5.2PL0 Copyright (c) Steve Scherf et al.
# Submitted via: ExactAudioCopyFreeDBPlugin 1.0
#
DISCID=a90d220d
DTITLE=รวมศิลปิน - รวมฮิต ซูซู and วงกะท้อน Disc 1
DYEAR=1900
DGENRE=
TTITLE0=นางสาวไทยแลนด์
TTITLE1=เอ็กซเรย์
TTITLE2=บุหงาอันดามัน
TTITLE3=ญี่ปุ่น ยุ่นปี่
TTITLE4=อ้ายจอห์นสัน
TTITLE5=นักปั้น
TTITLE6=อาฟริกา
TTITLE7=อ้ายโจ
TTITLE8=ไทยใหญ่
TTITLE9=แข่งขัน
TTITLE10=คนไม่ทันสมัย
TTITLE11=ผีตองเหลือง
TTITLE12=บทเพลงขลุ่ยอันดามัน
EXTD=
EXTT0=
EXTT1=
EXTT2=
EXTT3=
EXTT4=
EXTT5=
EXTT6=
EXTT7=
EXTT8=
EXTT9=
EXTT10=
EXTT11=
EXTT12=
PLAYORDER=
